[
  "TIME_SHIFT_0",
  "NOTE_ON_60_80_MELODY",
  "NOTE_ON_48_60_ACCOMP",
  "TIME_SHIFT_10",
  "NOTE_OFF_60_MELODY",
  "NOTE_OFF_48_ACCOMP",
  "NOTE_ON_62_80_MELODY",
  "NOTE_ON_50_60_ACCOMP",
  "TIME_SHIFT_10",
  "NOTE_OFF_62_MELODY",
  "NOTE_OFF_50_ACCOMP",
  "NOTE_ON_64_80_MELODY",
  "NOTE_ON_52_60_ACCOMP",
  "TIME_SHIFT_10",
  "NOTE_OFF_64_MELODY",
  "NOTE_OFF_52_ACCOMP",
  "NOTE_ON_65_80_MELODY",
  "NOTE_ON_53_60_ACCOMP",
  "TIME_SHIFT_20",
  "NOTE_OFF_65_MELODY",
  "NOTE_OFF_53_ACCOMP",
  "NOTE_ON_67_80_MELODY",
  "NOTE_ON_55_60_ACCOMP",
  "TIME_SHIFT_10",
  "NOTE_OFF_67_MELODY",
  "NOTE_OFF_55_ACCOMP"
]
